<svg width="43" height="30" viewBox="0 0 43 30" fill="none" xmlns="http://www.w3.org/2000/svg">
<g id="Frame 28">
<path id="Cloud" d="M34.9375 11.7692V11.5385C34.9375 5.07692 29.025 0 21.5 0C14.7812 0 9.1375 4.15385 8.33125 9.92308C3.49375 11.3077 0 15 0 19.6154C0 25.3846 5.375 30 12.0937 30C16.6625 30 27.95 30 32.25 30C38.1625 30 43 25.8462 43 20.7692C43 16.3846 39.5062 12.9231 34.9375 11.7692Z" fill="white"/>
<path id="arrow" d="M25.1874 18.4615C24.6351 18.4615 24.1874 18.9093 24.1874 19.4615V24.3846C24.1874 24.9369 23.7397 25.3846 23.1874 25.3846H19.8124C19.2601 25.3846 18.8124 24.9369 18.8124 24.3846V19.4615C18.8124 18.9093 18.3647 18.4615 17.8124 18.4615H13.4495C12.5215 18.4615 12.094 17.3074 12.798 16.7029L20.8484 9.79017C21.2232 9.46841 21.7767 9.46841 22.1514 9.79017L30.2018 16.7029C30.9058 17.3074 30.4783 18.4615 29.5503 18.4615H25.1874Z" fill="#054A9E"/>
</g>
</svg>
